#N canvas 699 176 841 514 10;
#X obj 704 309 cnv 15 700 701 empty empty empty 20 12 0 14 -199990
-66577 0;
#X obj -8 309 cnv 15 707 706 empty empty empty 20 12 0 14 -199990 -66577
0;
#X obj 900 349 cnv 15 161 638 empty empty empty 20 12 0 14 -233017
-66577 0;
#X obj 1068 349 cnv 15 161 638 empty empty empty 20 12 0 14 -233017
-66577 0;
#X obj 1236 349 cnv 15 161 638 empty empty empty 20 12 0 14 -233017
-66577 0;
#X obj 168 350 cnv 15 161 638 empty empty empty 20 12 0 14 -233017
-66577 0;
#X obj 0 350 cnv 15 161 638 empty empty empty 20 12 0 14 -233017 -66577
0;
#X obj 648 134 snapshot~;
#X obj 648 183 expr ($f1 + 1)/2;
#X floatatom 605 229 5 0 0 0 - - -, f 5;
#X obj 687 42 loadbang;
#X obj 650 3 hsl 128 15 0 6 0 0 empty empty empty -2 -8 0 10 -262144
-1 -1 2500 1;
#X obj 701 517 bng 15 250 50 0 empty empty empty 17 7 0 10 -262144
-1 -1;
#X obj 672 518 bng 15 250 50 0 empty empty empty 17 7 0 10 -262144
-1 -1;
#X obj 676 458 change;
#X obj 673 482 sel 1;
#X obj 683 394 r osc;
#X obj 683 419 < 0.5;
#X obj 1238 552 bng 15 250 50 0 empty empty empty 17 7 0 10 -262144
-1 -1;
#X obj 1284 503 change;
#X obj 1281 527 sel 1;
#X obj 1294 422 r osc;
#X obj 7 515 bng 15 250 50 0 empty empty empty 17 7 0 10 -262144 -1
-1;
#X obj 98 649 noteout 1, f 13;
#X obj 31 488 change;
#X obj 31 513 sel 1;
#X obj 35 421 r osc;
#X obj 605 631 noteout 3, f 13;
#X obj 32 464 < 0.05;
#X obj 1293 463 > 0.95;
#X obj 650 42 osc~;
#X obj 728 627 noteout 4, f 13;
#X msg 107 582 20, f 4;
#X msg 1299 586 20, f 4;
#X obj 79 619 makenote 127 101;
#X obj 1300 621 makenote 127 101;
#X obj 1302 659 noteout 2, f 13;
#X obj 648 228 s osc;
#X text 509 354 1/2;
#X obj 336 349 cnv 15 161 638 empty empty empty 20 12 0 14 -233017
-66577 0;
#X text 5 358 1/8;
#X text 1242 358 7/8;
#X text 1077 357 6/8;
#X text 910 359 5/8;
#X text 345 358 3/8;
#X text 175 358 2/8;
#X obj 1290 797 noteout 8;
#X floatatom 1242 798 5 0 0 0 - - -, f 5;
#X obj 5 752 makenote 127 10;
#X msg 608 562 61, f 4;
#X msg 733 560 60, f 4;
#X obj 605 597 makenote 50 100;
#X obj 723 597 makenote 50 100;
#X obj 75 811 noteout 9;
#X text 294 312 IZQUIERDA;
#X text 1076 311 DERECHA;
#X obj 1243 736 makenote 80 10;
#X obj 1189 200 preset_hub %hidden% %node% 1 58;
#X obj 1201 231 preset_node;
#X obj 665 1251 netsend -u -b;
#X msg 666 1165 connect localhost 8000;
#X obj 646 1108 list prepend send;
#X obj 646 1138 list trim;
#X msg 698 1201 disconnect;
#X obj 528 1141 oscparse;
#X obj 528 1166 print reassembled;
#X obj 646 1074 oscformat caja1;
#X obj 650 1031 pack f f f f f;
#X obj 51 1121 counter;
#X msg 129 1083 255;
#X floatatom 51 1157 5 0 0 0 - - -, f 5;
#X obj 41 1045 tgl 15 0 empty empty empty 17 7 0 10 -262144 -1 -1 0
1;
#X msg 105 1037 1;
#X msg 115 1058 1;
#X msg 128 1122 0;
#X obj 613 945 r v1;
#X obj 16 1159 s v1;
#X obj 1281 1115 counter;
#X msg 1368 1091 255;
#X floatatom 1318 1167 5 0 0 0 - - -, f 5;
#X obj 1271 1039 tgl 15 0 empty empty empty 17 7 0 10 -262144 -1 -1
0 1;
#X msg 1335 1031 1;
#X msg 1345 1052 1;
#X msg 1355 1071 0;
#X obj 1276 1165 s v2;
#X obj 662 944 r v2;
#X msg 1244 694 90;
#X msg 6 721 91;
#X msg 741 879 255;
#X msg 779 880 0;
#X obj 686 79 metro 40;
#X obj 41 1068 metro 40;
#X obj 663 981 t b f;
#X obj 612 979 t b f;
#X obj 1271 1062 metro 40;
#X obj 767 50 tgl 15 0 empty empty empty 17 7 0 10 -262144 -1 -1 0
1;
#X obj 849 1141 t b f;
#X obj 876 1181 pack f f f f f;
#X obj 894 1141 t b f;
#X obj 936 1142 t b f;
#X obj 980 1143 t b f;
#X obj 1027 1143 t b f;
#X floatatom 846 1105 5 0 0 0 - - -, f 5;
#X floatatom 893 1107 5 0 0 0 - - -, f 5;
#X floatatom 935 1105 5 0 0 0 - - -, f 5;
#X floatatom 981 1106 5 0 0 0 - - -, f 5;
#X floatatom 1030 1107 5 0 0 0 - - -, f 5;
#X obj 876 1020 r osc;
#X obj 877 1063 * 255;
#X obj 933 1024 r osc;
#X obj 934 1067 expr (1-$f1)*255;
#X connect 7 0 8 0;
#X connect 8 0 9 0;
#X connect 8 0 37 0;
#X connect 10 0 90 0;
#X connect 11 0 30 0;
#X connect 14 0 15 0;
#X connect 15 0 13 0;
#X connect 15 0 49 0;
#X connect 15 0 88 0;
#X connect 15 1 12 0;
#X connect 15 1 50 0;
#X connect 15 1 89 0;
#X connect 16 0 17 0;
#X connect 17 0 14 0;
#X connect 19 0 20 0;
#X connect 20 0 18 0;
#X connect 20 0 33 0;
#X connect 20 0 86 0;
#X connect 21 0 29 0;
#X connect 24 0 25 0;
#X connect 25 0 87 0;
#X connect 25 0 32 0;
#X connect 25 0 22 0;
#X connect 26 0 28 0;
#X connect 28 0 24 0;
#X connect 29 0 19 0;
#X connect 30 0 7 0;
#X connect 32 0 34 0;
#X connect 33 0 35 0;
#X connect 34 0 23 0;
#X connect 34 1 23 1;
#X connect 35 0 36 0;
#X connect 35 1 36 1;
#X connect 48 0 53 0;
#X connect 48 1 53 1;
#X connect 49 0 51 0;
#X connect 50 0 52 0;
#X connect 51 0 27 0;
#X connect 51 1 27 1;
#X connect 52 0 31 0;
#X connect 52 1 31 1;
#X connect 56 0 46 0;
#X connect 56 0 47 0;
#X connect 56 1 46 1;
#X connect 60 0 59 0;
#X connect 61 0 62 0;
#X connect 62 0 59 0;
#X connect 63 0 59 0;
#X connect 64 0 65 0;
#X connect 66 0 61 0;
#X connect 66 0 64 0;
#X connect 68 0 70 0;
#X connect 68 0 76 0;
#X connect 68 1 71 0;
#X connect 68 1 74 0;
#X connect 69 0 68 4;
#X connect 71 0 91 0;
#X connect 72 0 68 1;
#X connect 73 0 68 2;
#X connect 74 0 68 3;
#X connect 75 0 93 0;
#X connect 77 0 79 0;
#X connect 77 0 84 0;
#X connect 77 1 80 0;
#X connect 77 1 83 0;
#X connect 78 0 77 4;
#X connect 80 0 94 0;
#X connect 81 0 77 1;
#X connect 82 0 77 2;
#X connect 83 0 77 3;
#X connect 85 0 92 0;
#X connect 86 0 56 0;
#X connect 87 0 48 0;
#X connect 88 0 67 3;
#X connect 88 0 67 4;
#X connect 89 0 67 3;
#X connect 89 0 67 4;
#X connect 90 0 7 0;
#X connect 91 0 68 0;
#X connect 92 0 67 0;
#X connect 92 1 67 2;
#X connect 93 0 67 0;
#X connect 93 1 67 1;
#X connect 94 0 77 0;
#X connect 95 0 90 0;
#X connect 96 1 97 0;
#X connect 97 0 66 0;
#X connect 98 0 97 0;
#X connect 98 1 97 1;
#X connect 99 0 97 0;
#X connect 99 1 97 2;
#X connect 100 0 97 0;
#X connect 100 1 97 3;
#X connect 101 0 97 0;
#X connect 101 1 97 4;
#X connect 102 0 96 0;
#X connect 103 0 98 0;
#X connect 104 0 99 0;
#X connect 105 0 100 0;
#X connect 106 0 101 0;
#X connect 107 0 108 0;
#X connect 108 0 98 0;
#X connect 109 0 110 0;
#X connect 110 0 99 0;
