#N canvas 0 22 1904 986 10;
#X obj 742 -1012 cnv 15 862 527 empty empty empty 20 12 0 14 -170999
-66577 0;
#X obj 1554 -2181 cnv 15 1502 1017 empty empty empty 20 12 0 14 -253822
-66577 0;
#X obj -5 -2183 cnv 15 1551 1013 empty empty empty 20 12 0 14 -253822
-66577 0;
#X obj 166 -2055 cnv 15 95 88 empty empty empty 20 12 0 14 -233017
-66577 0;
#X obj 169 -1727 cnv 15 95 88 empty empty empty 20 12 0 14 -233017
-66577 0;
#X obj 165 -1378 cnv 15 95 88 empty empty empty 20 12 0 14 -233017
-66577 0;
#X obj 366 -1896 cnv 15 95 88 empty empty empty 20 12 0 14 -233017
-66577 0;
#X obj 362 -1547 cnv 15 95 88 empty empty empty 20 12 0 14 -233017
-66577 0;
#X obj 533 -2058 cnv 15 95 88 empty empty empty 20 12 0 14 -233017
-66577 0;
#X obj 536 -1730 cnv 15 95 88 empty empty empty 20 12 0 14 -233017
-66577 0;
#X obj 532 -1381 cnv 15 95 88 empty empty empty 20 12 0 14 -233017
-66577 0;
#X obj 733 -1899 cnv 15 95 88 empty empty empty 20 12 0 14 -233017
-66577 0;
#X obj 729 -1550 cnv 15 95 88 empty empty empty 20 12 0 14 -233017
-66577 0;
#X obj 911 -2059 cnv 15 95 88 empty empty empty 20 12 0 14 -233017
-66577 0;
#X obj 914 -1731 cnv 15 95 88 empty empty empty 20 12 0 14 -233017
-66577 0;
#X obj 910 -1382 cnv 15 95 88 empty empty empty 20 12 0 14 -233017
-66577 0;
#X obj 1111 -1900 cnv 15 95 88 empty empty empty 20 12 0 14 -233017
-66577 0;
#X obj 1107 -1551 cnv 15 95 88 empty empty empty 20 12 0 14 -233017
-66577 0;
#X obj 1308 -2064 cnv 15 95 88 empty empty empty 20 12 0 14 -233017
-66577 0;
#X obj 1311 -1736 cnv 15 95 88 empty empty empty 20 12 0 14 -233017
-66577 0;
#X obj 1307 -1387 cnv 15 95 88 empty empty empty 20 12 0 14 -233017
-66577 0;
#X obj 1508 -1905 cnv 15 95 88 empty empty empty 20 12 0 14 -233017
-66577 0;
#X obj 1504 -1556 cnv 15 95 88 empty empty empty 20 12 0 14 -233017
-66577 0;
#X obj 1699 -2066 cnv 15 95 88 empty empty empty 20 12 0 14 -233017
-66577 0;
#X obj 1702 -1738 cnv 15 95 88 empty empty empty 20 12 0 14 -233017
-66577 0;
#X obj 1698 -1389 cnv 15 95 88 empty empty empty 20 12 0 14 -233017
-66577 0;
#X obj 1889 -1905 cnv 15 95 88 empty empty empty 20 12 0 14 -233017
-66577 0;
#X obj 1885 -1556 cnv 15 95 88 empty empty empty 20 12 0 14 -233017
-66577 0;
#X obj 2067 -2065 cnv 15 95 88 empty empty empty 20 12 0 14 -233017
-66577 0;
#X obj 2070 -1737 cnv 15 95 88 empty empty empty 20 12 0 14 -233017
-66577 0;
#X obj 2066 -1388 cnv 15 95 88 empty empty empty 20 12 0 14 -233017
-66577 0;
#X obj 2267 -1906 cnv 15 95 88 empty empty empty 20 12 0 14 -233017
-66577 0;
#X obj 2263 -1557 cnv 15 95 88 empty empty empty 20 12 0 14 -233017
-66577 0;
#X obj 2464 -2070 cnv 15 95 88 empty empty empty 20 12 0 14 -233017
-66577 0;
#X obj 2467 -1742 cnv 15 95 88 empty empty empty 20 12 0 14 -233017
-66577 0;
#X obj 2463 -1393 cnv 15 95 88 empty empty empty 20 12 0 14 -233017
-66577 0;
#X obj 2664 -1911 cnv 15 95 88 empty empty empty 20 12 0 14 -233017
-66577 0;
#X obj 2660 -1562 cnv 15 95 88 empty empty empty 20 12 0 14 -233017
-66577 0;
#X obj 2855 -2072 cnv 15 95 88 empty empty empty 20 12 0 14 -233017
-66577 0;
#X obj 2858 -1744 cnv 15 95 88 empty empty empty 20 12 0 14 -233017
-66577 0;
#X obj 2854 -1395 cnv 15 95 88 empty empty empty 20 12 0 14 -233017
-66577 0;
#X floatatom 2916 -2096 5 0 0 0 - p36 -, f 5;
#X floatatom 2921 -1772 5 0 0 0 - p37 -, f 5;
#X floatatom 2917 -1419 5 0 0 0 - p38 -, f 5;
#X floatatom 2526 -2095 5 0 0 0 - p31 -, f 5;
#X floatatom 2531 -1770 5 0 0 0 - p32 -, f 5;
#X floatatom 2527 -1418 5 0 0 0 - p33 -, f 5;
#X floatatom 2725 -1934 5 0 0 0 - p34 -, f 5;
#X floatatom 2721 -1581 5 0 0 0 - p35 -, f 5;
#X floatatom 2131 -2092 5 0 0 0 - p26 -, f 5;
#X floatatom 2136 -1768 5 0 0 0 - p27 -, f 5;
#X floatatom 2132 -1415 5 0 0 0 - p28 -, f 5;
#X floatatom 1757 -2093 5 0 0 0 - p21 -, f 5;
#X floatatom 1762 -1768 5 0 0 0 - p22 -, f 5;
#X floatatom 1758 -1416 5 0 0 0 - p23 -, f 5;
#X floatatom 1956 -1932 5 0 0 0 - p24 -, f 5;
#X floatatom 1952 -1579 5 0 0 0 - p25 -, f 5;
#X floatatom 2332 -1931 5 0 0 0 - p29 -, f 5;
#X floatatom 2328 -1578 5 0 0 0 - p30 -, f 5;
#X floatatom 1572 -1928 5 0 0 0 - p19 -, f 5;
#X floatatom 1568 -1579 5 0 0 0 - p20 c20, f 5;
#X floatatom 1370 -2088 5 0 0 0 - p16 -, f 5;
#X floatatom 1375 -1764 5 0 0 0 - p17 -, f 5;
#X floatatom 1371 -1411 5 0 0 0 - p18 -, f 5;
#X floatatom 980 -2087 5 0 0 0 - p11 -, f 5;
#X floatatom 985 -1762 5 0 0 0 - p12 -, f 5;
#X floatatom 981 -1410 5 0 0 0 - p13 -, f 5;
#X floatatom 1179 -1926 5 0 0 0 - p14 -, f 5;
#X floatatom 1175 -1573 5 0 0 0 - p15 -, f 5;
#X floatatom 585 -2084 5 0 0 0 - p6 -, f 5;
#X floatatom 590 -1760 5 0 0 0 - p7 -, f 5;
#X floatatom 586 -1407 5 0 0 0 - p8 -, f 5;
#X floatatom 225 -2081 5 0 0 0 - p1 -, f 5;
#X floatatom 229 -1757 5 0 0 0 - p2 -, f 5;
#X floatatom 228 -1408 5 0 0 0 - p3 -, f 5;
#X floatatom 426 -1921 5 0 0 0 - p4 -, f 5;
#X floatatom 425 -1569 5 0 0 0 - p5 -, f 5;
#X floatatom 786 -1923 5 0 0 0 - p9 -, f 5;
#X floatatom 782 -1570 5 0 0 0 - p10 -, f 5;
#X text 183 -2082 Index;
#X floatatom 200 -1970 5 0 0 0 - a1 -, f 5;
#X floatatom 202 -1647 5 0 0 0 - a2 -, f 5;
#X floatatom 195 -1298 5 0 0 0 - a3 -, f 5;
#X floatatom 569 -1975 5 0 0 0 - a6 -, f 5;
#X floatatom 571 -1652 5 0 0 0 - a7 -, f 5;
#X floatatom 564 -1303 5 0 0 0 - a8 -, f 5;
#X floatatom 396 -1816 5 0 0 0 - a4 -, f 5;
#X floatatom 395 -1467 5 0 0 0 - a5 -, f 5;
#X floatatom 946 -1976 5 0 0 0 - a11 -, f 5;
#X floatatom 948 -1653 5 0 0 0 - a12 -, f 5;
#X floatatom 941 -1304 5 0 0 0 - a13 -, f 5;
#X floatatom 1341 -1982 5 0 0 0 - a16 -, f 5;
#X floatatom 1343 -1659 5 0 0 0 - a17 -, f 5;
#X floatatom 1336 -1310 5 0 0 0 - a18 -, f 5;
#X floatatom 1142 -1822 5 0 0 0 - a14 -, f 5;
#X floatatom 1141 -1473 5 0 0 0 - a15 -, f 5;
#X floatatom 765 -1822 5 0 0 0 - a9 -, f 5;
#X floatatom 764 -1473 5 0 0 0 - a10 -, f 5;
#X floatatom 1539 -1825 5 0 0 0 - a19 -, f 5;
#X floatatom 1538 -1476 5 0 0 0 - a20 send20, f 5;
#X floatatom 1734 -1979 5 0 0 0 - a21 -, f 5;
#X floatatom 1736 -1656 5 0 0 0 - a22 -, f 5;
#X floatatom 1729 -1307 5 0 0 0 - a23 -, f 5;
#X floatatom 2103 -1984 5 0 0 0 - a26 -, f 5;
#X floatatom 2105 -1661 5 0 0 0 - a27 -, f 5;
#X floatatom 2098 -1312 5 0 0 0 - a28 -, f 5;
#X floatatom 1930 -1825 5 0 0 0 - a24 -, f 5;
#X floatatom 1929 -1476 5 0 0 0 - a25 -, f 5;
#X floatatom 2480 -1985 5 0 0 0 - a31 -, f 5;
#X floatatom 2482 -1662 5 0 0 0 - a32 -, f 5;
#X floatatom 2475 -1313 5 0 0 0 - a33 -, f 5;
#X floatatom 2881 -1991 5 0 0 0 - a36 -, f 5;
#X floatatom 2893 -1665 5 0 0 0 - a37 -, f 5;
#X floatatom 2884 -1317 5 0 0 0 - a38 -, f 5;
#X floatatom 2676 -1831 5 0 0 0 - a34 -, f 5;
#X floatatom 2675 -1482 5 0 0 0 - a35 -, f 5;
#X floatatom 2299 -1831 5 0 0 0 - a29 -, f 5;
#X floatatom 2298 -1482 5 0 0 0 - a30 -, f 5;
#X text 174 -1946 Angulo actual \; este motor;
#N canvas 0 22 450 300 rampa 0;
#X obj 231 340 line;
#X obj 201 245 t b b b;
#X msg 224 296 0;
#X floatatom 253 296 5 0 0 0 - - -, f 5;
#X obj 235 373 speedlim 40;
#X msg 298 298 1;
#X obj 192 191 inlet;
#X obj 305 173 inlet;
#X obj 239 428 outlet;
#X floatatom 12 12 5 0 0 0 - - -, f 5;
#X obj 304 420 s c1_izq;
#X connect 0 0 4 0;
#X connect 1 0 2 0;
#X connect 1 1 3 0;
#X connect 1 2 5 0;
#X connect 2 0 0 0;
#X connect 3 0 0 1;
#X connect 4 0 8 0;
#X connect 4 0 10 0;
#X connect 5 0 0 0;
#X connect 6 0 1 0;
#X connect 7 0 3 0;
#X restore 58 -2006 pd rampa;
#X floatatom 103 -2031 5 0 0 0 - vel -, f 5;
#X obj 159 -2005 change;
#X obj 161 -2029 < 1;
#N canvas 0 22 450 300 rampa 0;
#X obj 231 340 line;
#X obj 201 245 t b b b;
#X msg 224 296 0;
#X floatatom 253 296 5 0 0 0 - - -, f 5;
#X obj 235 373 speedlim 40;
#X msg 298 298 1;
#X obj 192 191 inlet;
#X obj 305 173 inlet;
#X obj 239 428 outlet;
#X floatatom 12 12 5 0 0 0 - - -, f 5;
#X obj 306 420 s c2_der;
#X connect 0 0 4 0;
#X connect 1 0 2 0;
#X connect 1 1 3 0;
#X connect 1 2 5 0;
#X connect 2 0 0 0;
#X connect 3 0 0 1;
#X connect 4 0 8 0;
#X connect 4 0 10 0;
#X connect 5 0 0 0;
#X connect 6 0 1 0;
#X connect 7 0 3 0;
#X restore 312 -2004 pd rampa;
#X floatatom 354 -2031 5 0 0 0 - vel -, f 5;
#X obj 248 -2004 change;
#X obj 248 -2028 > 89;
#X obj 1267 -958 hsl 128 15 200 1000 0 1 vel empty Velocidad\ rampa
13 -8 0 10 -262144 -1 -1 0 1;
#X obj 17 -1013 cnv 15 357 529 empty empty empty 20 12 0 14 -171372
-66577 0;
#X obj 97 -537 netsend -u -b;
#X msg 130 -587 disconnect;
#X obj 63 -706 list prepend send;
#X obj 63 -676 list trim;
#X msg 128 -651 connect localhost 8020;
#X obj 68 -949 * 90;
#X text 21 -1043 Motores;
#X obj 66 -981 r osc;
#N canvas 43 152 1819 822 distribucion 0;
#X obj 189 171 pipe;
#X obj 220 171 pipe;
#X obj 253 170 pipe;
#X obj 286 172 pipe;
#X obj 319 172 pipe;
#X obj 263 73 r p1;
#X obj 294 74 r p2;
#X obj 326 74 r p3;
#X obj 354 74 r p4;
#X obj 386 75 r p5;
#X obj 200 72 r p0;
#X obj 351 173 pipe;
#X obj 381 173 pipe;
#X obj 415 172 pipe;
#X obj 448 174 pipe;
#X obj 481 174 pipe;
#X obj 428 111 * 5;
#X obj 459 110 * 6;
#X obj 492 111 * 7;
#X obj 519 111 * 8;
#X obj 550 110 * 9;
#X obj 425 75 r p6;
#X obj 456 76 r p7;
#X obj 488 76 r p8;
#X obj 517 77 r p9;
#X obj 548 77 r p10;
#X obj 93 54 inlet;
#X obj 78 317 outlet;
#X obj 515 174 pipe;
#X obj 546 174 pipe;
#X obj 579 173 pipe;
#X obj 612 173 pipe;
#X obj 645 175 pipe;
#X obj 592 112 * 0;
#X obj 655 112 * 2;
#X obj 623 112 * 1;
#X obj 683 112 * 3;
#X obj 714 111 * 4;
#X obj 677 176 pipe;
#X obj 708 176 pipe;
#X obj 741 175 pipe;
#X obj 774 177 pipe;
#X obj 807 177 pipe;
#X obj 754 114 * 5;
#X obj 785 113 * 6;
#X obj 818 114 * 7;
#X obj 845 114 * 8;
#X obj 876 113 * 9;
#X obj 846 176 pipe;
#X obj 877 176 pipe;
#X obj 910 175 pipe;
#X obj 943 177 pipe;
#X obj 976 177 pipe;
#X obj 923 114 * 0;
#X obj 986 114 * 2;
#X obj 954 114 * 1;
#X obj 1014 114 * 3;
#X obj 1045 113 * 4;
#X obj 1008 178 pipe;
#X obj 1039 178 pipe;
#X obj 1071 177 pipe;
#X obj 1105 179 pipe;
#X obj 1138 179 pipe;
#X obj 1085 116 * 5;
#X obj 1116 115 * 6;
#X obj 1149 116 * 7;
#X obj 1176 116 * 8;
#X obj 1207 115 * 9;
#X obj 1178 180 pipe;
#X obj 1209 180 pipe;
#X obj 1242 179 pipe;
#X obj 1275 179 pipe;
#X obj 1308 179 pipe;
#X obj 1255 118 * 0;
#X obj 1318 118 * 2;
#X obj 1286 118 * 1;
#X obj 1346 118 * 3;
#X obj 1377 117 * 4;
#X obj 1340 180 pipe;
#X obj 1371 180 pipe;
#X obj 1404 179 pipe;
#X obj 1417 120 * 5;
#X obj 1448 119 * 6;
#X obj 1481 120 * 7;
#X obj 590 75 r p11;
#X obj 620 77 r p12;
#X obj 652 77 r p13;
#X obj 681 77 r p14;
#X obj 712 78 r p15;
#X obj 751 78 r p16;
#X obj 782 80 r p17;
#X obj 814 79 r p18;
#X obj 843 80 r p19;
#X obj 872 79 r p20;
#X obj 920 78 r p21;
#X obj 951 79 r p22;
#X obj 982 80 r p23;
#X obj 1011 79 r p24;
#X obj 1044 80 r p25;
#X obj 1082 80 r p26;
#X obj 1113 81 r p27;
#X obj 1145 81 r p28;
#X obj 1174 82 r p29;
#X obj 1205 82 r p30;
#X obj 1252 83 r p31;
#X obj 1284 84 r p32;
#X obj 1315 83 r p33;
#X obj 1344 84 r p34;
#X obj 1375 85 r p35;
#X obj 1414 84 r p36;
#X obj 1445 85 r p37;
#X obj 1477 85 r p38;
#X obj 89 138 t b f f f f f f f f f f f f f f f f f f f f f f f f f
f f f f f f f f f f f f f f, f 226;
#X obj 78 269 pack f f f f f f f f f f f f f f f f f f f f f f f f
f f f f f f f f f f f f f f f, f 225;
#X text 326 348 a -> Posicion actual;
#X obj 16 195 r randomM;
#X obj 546 342 s a1;
#X obj 578 340 s a2;
#X obj 611 342 s a3;
#X obj 639 342 s a4;
#X obj 671 343 s a5;
#X obj 706 344 s a6;
#X obj 738 345 s a7;
#X obj 768 345 s a8;
#X obj 798 345 s a9;
#X obj 829 346 s a10;
#X obj 872 345 s a11;
#X obj 905 345 s a12;
#X obj 937 345 s a13;
#X obj 966 345 s a14;
#X obj 996 346 s a15;
#X obj 1032 347 s a16;
#X obj 1064 348 s a17;
#X obj 1097 349 s a18;
#X obj 1125 347 s a19;
#X obj 1166 347 s a20;
#X obj 1199 347 s a21;
#X obj 1231 345 s a22;
#X obj 1260 348 s a23;
#X obj 1292 347 s a24;
#X obj 1326 349 s a25;
#X obj 1358 350 s a26;
#X obj 1389 350 s a27;
#X obj 1417 350 s a28;
#X obj 1448 349 s a29;
#X obj 1492 350 s a30;
#X obj 1525 350 s a31;
#X obj 1554 351 s a32;
#X obj 1584 350 s a33;
#X obj 1617 350 s a34;
#X obj 1652 353 s a35;
#X obj 1684 354 s a36;
#X obj 1718 354 s a37;
#X obj 1754 353 s a38;
#X obj 459 298 unpack f f f f f f f f f f f f f f f f f f f f f f f
f f f f f f f f f f f f f f f f, f 217;
#X obj 764 210 r send20;
#X obj 266 109 *;
#X obj 297 109 *;
#X obj 329 109 *;
#X obj 358 109 *;
#X obj 388 108 *;
#X connect 0 0 113 1;
#X connect 1 0 113 2;
#X connect 2 0 113 3;
#X connect 3 0 113 4;
#X connect 4 0 113 5;
#X connect 5 0 156 1;
#X connect 6 0 157 1;
#X connect 7 0 158 1;
#X connect 8 0 159 1;
#X connect 9 0 160 1;
#X connect 10 0 16 0;
#X connect 10 0 20 0;
#X connect 10 0 19 0;
#X connect 10 0 18 0;
#X connect 10 0 17 0;
#X connect 10 0 33 0;
#X connect 10 0 83 0;
#X connect 10 0 82 0;
#X connect 10 0 81 0;
#X connect 10 0 77 0;
#X connect 10 0 76 0;
#X connect 10 0 75 0;
#X connect 10 0 74 0;
#X connect 10 0 73 0;
#X connect 10 0 67 0;
#X connect 10 0 66 0;
#X connect 10 0 65 0;
#X connect 10 0 64 0;
#X connect 10 0 63 0;
#X connect 10 0 57 0;
#X connect 10 0 56 0;
#X connect 10 0 55 0;
#X connect 10 0 54 0;
#X connect 10 0 53 0;
#X connect 10 0 47 0;
#X connect 10 0 46 0;
#X connect 10 0 45 0;
#X connect 10 0 44 0;
#X connect 10 0 43 0;
#X connect 10 0 37 0;
#X connect 10 0 36 0;
#X connect 10 0 35 0;
#X connect 10 0 34 0;
#X connect 10 0 156 0;
#X connect 10 0 157 0;
#X connect 10 0 158 0;
#X connect 10 0 159 0;
#X connect 10 0 160 0;
#X connect 11 0 113 6;
#X connect 12 0 113 7;
#X connect 13 0 113 8;
#X connect 14 0 113 9;
#X connect 15 0 113 10;
#X connect 16 0 11 1;
#X connect 17 0 12 1;
#X connect 18 0 13 1;
#X connect 19 0 14 1;
#X connect 20 0 15 1;
#X connect 21 0 16 1;
#X connect 22 0 17 1;
#X connect 23 0 18 1;
#X connect 24 0 19 1;
#X connect 25 0 20 1;
#X connect 26 0 112 0;
#X connect 28 0 113 11;
#X connect 29 0 113 12;
#X connect 30 0 113 13;
#X connect 31 0 113 14;
#X connect 32 0 113 15;
#X connect 33 0 28 1;
#X connect 34 0 30 1;
#X connect 35 0 29 1;
#X connect 36 0 31 1;
#X connect 37 0 32 1;
#X connect 38 0 113 16;
#X connect 39 0 113 17;
#X connect 40 0 113 18;
#X connect 41 0 113 19;
#X connect 42 0 113 20;
#X connect 43 0 38 1;
#X connect 44 0 39 1;
#X connect 45 0 40 1;
#X connect 46 0 41 1;
#X connect 47 0 42 1;
#X connect 48 0 113 21;
#X connect 49 0 113 22;
#X connect 50 0 113 23;
#X connect 51 0 113 24;
#X connect 52 0 113 25;
#X connect 53 0 48 1;
#X connect 54 0 50 1;
#X connect 55 0 49 1;
#X connect 56 0 51 1;
#X connect 57 0 52 1;
#X connect 58 0 113 26;
#X connect 59 0 113 27;
#X connect 60 0 113 28;
#X connect 61 0 113 29;
#X connect 62 0 113 30;
#X connect 63 0 58 1;
#X connect 64 0 59 1;
#X connect 65 0 60 1;
#X connect 66 0 61 1;
#X connect 67 0 62 1;
#X connect 68 0 113 31;
#X connect 69 0 113 32;
#X connect 70 0 113 33;
#X connect 71 0 113 34;
#X connect 72 0 113 35;
#X connect 73 0 68 1;
#X connect 74 0 70 1;
#X connect 75 0 69 1;
#X connect 76 0 71 1;
#X connect 77 0 72 1;
#X connect 78 0 113 36;
#X connect 79 0 113 37;
#X connect 80 0 113 38;
#X connect 81 0 78 1;
#X connect 82 0 79 1;
#X connect 83 0 80 1;
#X connect 84 0 33 1;
#X connect 85 0 35 1;
#X connect 86 0 34 1;
#X connect 87 0 36 1;
#X connect 88 0 37 1;
#X connect 89 0 43 1;
#X connect 90 0 44 1;
#X connect 91 0 45 1;
#X connect 92 0 46 1;
#X connect 93 0 47 1;
#X connect 94 0 53 1;
#X connect 95 0 55 1;
#X connect 96 0 54 1;
#X connect 97 0 56 1;
#X connect 98 0 57 1;
#X connect 99 0 63 1;
#X connect 100 0 64 1;
#X connect 101 0 65 1;
#X connect 102 0 66 1;
#X connect 103 0 67 1;
#X connect 104 0 73 1;
#X connect 105 0 75 1;
#X connect 106 0 74 1;
#X connect 107 0 76 1;
#X connect 108 0 77 1;
#X connect 109 0 81 1;
#X connect 110 0 82 1;
#X connect 111 0 83 1;
#X connect 112 0 113 0;
#X connect 112 1 0 0;
#X connect 112 2 1 0;
#X connect 112 3 2 0;
#X connect 112 4 3 0;
#X connect 112 5 4 0;
#X connect 112 6 11 0;
#X connect 112 7 12 0;
#X connect 112 8 13 0;
#X connect 112 9 14 0;
#X connect 112 10 15 0;
#X connect 112 11 28 0;
#X connect 112 12 29 0;
#X connect 112 13 30 0;
#X connect 112 14 31 0;
#X connect 112 15 32 0;
#X connect 112 16 38 0;
#X connect 112 17 39 0;
#X connect 112 18 40 0;
#X connect 112 19 41 0;
#X connect 112 20 42 0;
#X connect 112 21 48 0;
#X connect 112 22 49 0;
#X connect 112 23 50 0;
#X connect 112 24 51 0;
#X connect 112 25 52 0;
#X connect 112 26 58 0;
#X connect 112 27 59 0;
#X connect 112 28 60 0;
#X connect 112 29 61 0;
#X connect 112 30 62 0;
#X connect 112 31 68 0;
#X connect 112 32 69 0;
#X connect 112 33 70 0;
#X connect 112 34 71 0;
#X connect 112 35 72 0;
#X connect 112 36 78 0;
#X connect 112 37 79 0;
#X connect 112 38 80 0;
#X connect 113 0 27 0;
#X connect 113 0 154 0;
#X connect 115 0 113 1;
#X connect 115 0 113 2;
#X connect 115 0 113 3;
#X connect 115 0 113 4;
#X connect 115 0 113 5;
#X connect 115 0 113 6;
#X connect 115 0 113 7;
#X connect 115 0 113 8;
#X connect 115 0 113 9;
#X connect 115 0 113 10;
#X connect 115 0 113 11;
#X connect 115 0 113 12;
#X connect 115 0 113 13;
#X connect 115 0 113 14;
#X connect 115 0 113 15;
#X connect 115 0 113 16;
#X connect 115 0 113 17;
#X connect 115 0 113 18;
#X connect 115 0 113 19;
#X connect 115 0 113 20;
#X connect 115 0 113 21;
#X connect 115 0 113 22;
#X connect 115 0 113 23;
#X connect 115 0 113 24;
#X connect 115 0 113 25;
#X connect 115 0 113 26;
#X connect 115 0 113 27;
#X connect 115 0 113 28;
#X connect 115 0 113 29;
#X connect 115 0 113 30;
#X connect 115 0 113 31;
#X connect 115 0 113 32;
#X connect 115 0 113 33;
#X connect 115 0 113 34;
#X connect 115 0 113 35;
#X connect 115 0 113 36;
#X connect 115 0 113 37;
#X connect 115 0 113 38;
#X connect 115 0 113 0;
#X connect 154 1 116 0;
#X connect 154 2 117 0;
#X connect 154 3 118 0;
#X connect 154 4 119 0;
#X connect 154 5 120 0;
#X connect 154 6 121 0;
#X connect 154 7 122 0;
#X connect 154 8 123 0;
#X connect 154 9 124 0;
#X connect 154 10 125 0;
#X connect 154 11 126 0;
#X connect 154 12 127 0;
#X connect 154 13 128 0;
#X connect 154 14 129 0;
#X connect 154 15 130 0;
#X connect 154 16 131 0;
#X connect 154 17 132 0;
#X connect 154 18 133 0;
#X connect 154 19 134 0;
#X connect 154 20 135 0;
#X connect 154 21 136 0;
#X connect 154 22 137 0;
#X connect 154 23 138 0;
#X connect 154 24 139 0;
#X connect 154 25 140 0;
#X connect 154 26 141 0;
#X connect 154 27 142 0;
#X connect 154 28 143 0;
#X connect 154 29 144 0;
#X connect 154 30 145 0;
#X connect 154 31 146 0;
#X connect 154 32 147 0;
#X connect 154 33 148 0;
#X connect 154 34 149 0;
#X connect 154 35 150 0;
#X connect 154 36 151 0;
#X connect 154 37 152 0;
#X connect 154 38 153 0;
#X connect 155 0 113 19;
#X connect 155 0 113 18;
#X connect 155 0 113 17;
#X connect 155 0 113 20;
#X connect 155 0 113 21;
#X connect 156 0 0 1;
#X connect 157 0 1 1;
#X connect 158 0 2 1;
#X connect 159 0 3 1;
#X connect 160 0 4 1;
#X restore 62 -841 pd distribucion;
#X obj 60 -735 oscformat /motores;
#X floatatom 208 -960 5 0 0 0 - - -, f 5;
#X floatatom 209 -917 5 0 0 0 - - -, f 5;
#X obj 209 -938 expr (90 - $f1);
#X obj 380 -1012 cnv 15 357 526 empty empty empty 20 12 0 14 -260129
-66577 0;
#X obj 447 -729 netsend -u -b;
#X obj 428 -872 list prepend send;
#X obj 428 -842 list trim;
#X msg 480 -779 disconnect;
#X msg 448 -815 connect localhost 8010;
#X text 383 -1041 Luces;
#X obj 427 -906 oscformat /luces;
#N canvas 0 22 450 300 mapper 0;
#X obj 114 106 t b f;
#X obj 72 105 t b f;
#X obj 110 210 outlet;
#X obj 111 157 pack f f f f f f f f f f f f f f f f f f f f f f, f
105;
#X obj 199 107 t b f;
#X obj 157 106 t b f;
#X obj 72 47 r c1_izq;
#X obj 112 68 r c1_der;
#X obj 156 46 r c1_d_izq;
#X obj 199 69 r c1_d_der;
#X connect 0 0 3 0;
#X connect 0 1 3 2;
#X connect 1 0 3 0;
#X connect 1 1 3 1;
#X connect 3 0 2 0;
#X connect 4 0 3 0;
#X connect 4 1 3 4;
#X connect 5 0 3 0;
#X connect 5 1 3 3;
#X connect 6 0 1 0;
#X connect 7 0 0 0;
#X connect 8 0 5 0;
#X connect 9 0 4 0;
#X restore 426 -943 pd mapper;
#N canvas 317 185 708 663 lista 0;
#X obj 119 208 s p1;
#X obj 152 208 s p2;
#X obj 184 208 s p3;
#X obj 212 208 s p4;
#X obj 244 209 s p5;
#X obj 40 221 s p0;
#X obj 279 210 s p6;
#X obj 311 211 s p7;
#X obj 342 211 s p8;
#X obj 370 211 s p9;
#X obj 402 212 s p10;
#X obj 445 211 s p11;
#X obj 478 211 s p12;
#X obj 510 211 s p13;
#X obj 538 211 s p14;
#X obj 570 211 s p15;
#X obj 605 213 s p16;
#X obj 637 214 s p17;
#X obj 670 215 s p18;
#X obj 697 214 s p19;
#X obj 128 176 unpack f f f f f f f f f f f f f f f f f f f f f f f
f f f f f f f f f f f f f f f f, f 115;
#X obj 119 231 s p20;
#X obj 153 231 s p21;
#X obj 184 229 s p22;
#X obj 212 231 s p23;
#X obj 245 231 s p24;
#X obj 279 233 s p25;
#X obj 311 234 s p26;
#X obj 342 234 s p27;
#X obj 370 234 s p28;
#X obj 400 233 s p29;
#X obj 445 234 s p30;
#X obj 478 234 s p31;
#X obj 511 234 s p32;
#X obj 538 234 s p33;
#X obj 570 234 s p34;
#X obj 605 236 s p35;
#X obj 637 237 s p36;
#X obj 671 238 s p37;
#X obj 698 236 s p38;
#X obj 156 80 inlet;
#X text 187 309 p -> pipe;
#X connect 20 0 5 0;
#X connect 20 1 0 0;
#X connect 20 2 1 0;
#X connect 20 3 2 0;
#X connect 20 4 3 0;
#X connect 20 5 4 0;
#X connect 20 6 6 0;
#X connect 20 7 7 0;
#X connect 20 8 8 0;
#X connect 20 9 9 0;
#X connect 20 10 10 0;
#X connect 20 11 11 0;
#X connect 20 12 12 0;
#X connect 20 13 13 0;
#X connect 20 14 14 0;
#X connect 20 15 15 0;
#X connect 20 16 16 0;
#X connect 20 17 17 0;
#X connect 20 18 18 0;
#X connect 20 19 19 0;
#X connect 20 20 21 0;
#X connect 20 21 22 0;
#X connect 20 22 23 0;
#X connect 20 23 24 0;
#X connect 20 24 25 0;
#X connect 20 25 26 0;
#X connect 20 26 27 0;
#X connect 20 27 28 0;
#X connect 20 28 29 0;
#X connect 20 29 30 0;
#X connect 20 30 31 0;
#X connect 20 31 32 0;
#X connect 20 32 33 0;
#X connect 20 33 34 0;
#X connect 20 34 35 0;
#X connect 20 35 36 0;
#X connect 20 36 37 0;
#X connect 20 37 38 0;
#X connect 20 38 39 0;
#X connect 40 0 20 0;
#X restore 1129 -545 pd lista;
#N canvas 719 335 450 323 arriba 0;
#X obj 38 95 inlet;
#X obj 38 160 outlet;
#X msg 37 126 100 1 3 5 2 4 1 3 5 2 4 1 3 5 2 4 1 3 5 2 4 1 3 5 2 4
1 3 5 2 4 1 3 5 2 4 1 3 5, f 98;
#X connect 0 0 2 0;
#X connect 2 0 1 0;
#X restore 895 -634 pd arriba - abajo;
#X obj 894 -653 bng 15 250 50 0 empty empty empty 17 7 0 10 -262144
-1 -1;
#N canvas 1055 23 450 300 abajo 0;
#X msg 49 130 500 5 3 1 4 2 5 3 1 4 2 5 3 1 4 2 5 3 1 4 2 5 3 1 4 2
5 3 1 4 2 5 3 1 4 2 5 3 1, f 98;
#X obj 47 90 inlet;
#X obj 49 220 outlet;
#X obj 48 183 . 1;
#X floatatom 136 165 8 0 0 0 - scalar1 -, f 8;
#X obj 134 192 int;
#X connect 0 0 3 0;
#X connect 1 0 0 0;
#X connect 3 0 2 0;
#X connect 4 0 5 0;
#X connect 5 0 3 1;
#X restore 1021 -634 pd abajo - arriba;
#X obj 1022 -654 bng 15 250 50 0 empty empty empty 17 7 0 10 -262144
-1 -1;
#N canvas 1052 345 450 323 izq 0;
#X obj 27 85 inlet;
#X obj 24 159 outlet;
#X msg 28 120 100 15 15 15 14 14 13 13 13 12 12 11 11 11 10 10 9 9
9 8 8 7 7 7 6 6 5 5 5 4 4 3 3 3 2 2 1 1 1, f 98;
#X connect 0 0 2 0;
#X connect 2 0 1 0;
#X restore 1151 -632 pd izq - derecha;
#N canvas 0 22 450 300 derecha 0;
#X obj 38 96 inlet;
#X obj 35 170 outlet;
#X msg 35 132 100 1 1 1 2 2 3 3 3 4 4 5 5 5 6 6 7 7 7 8 8 9 9 9 10
10 11 11 11 12 12 13 13 13 14 14 15 15 15, f 98;
#X connect 0 0 2 0;
#X connect 2 0 1 0;
#X restore 1267 -633 pd derecha - izquierda;
#N canvas 0 22 450 300 pareja 0;
#X obj 47 115 inlet;
#X obj 44 189 outlet;
#X msg 48 144 100 1 1 1 2 2 1 1 1 2 2 1 1 1 2 2 1 1 1 2 2 1 1 1 2 2
1 1 1 2 2 1 1 1 2 2 1 1 1, f 98;
#X connect 0 0 2 0;
#X connect 2 0 1 0;
#X restore 1425 -634 pd pareja;
#N canvas 0 22 450 300 invertidos 0;
#X obj 47 120 inlet;
#X obj 44 194 outlet;
#X msg 47 149 1000 1 1 1 1 1 1 1 1 1 1 1 1 1 1 1 1 1 1 1 2 2 2 2 2
2 2 2 2 2 2 2 2 2 2 2 2 2 2, f 98;
#X msg 266 347 dfgdfg fdhhgf f f f f f f f;
#X connect 0 0 2 0;
#X connect 2 0 1 0;
#X restore 1497 -635 pd invertidos;
#N canvas 1055 23 450 300 simultaneos 0;
#X obj 70 108 inlet;
#X obj 67 182 outlet;
#X msg 68 139 0 1 1 1 1 1 1 1 1 1 1 1 1 1 1 1 1 1 1 1 1 1 1 1 1 1 1
1 1 1 1 1 1 1 1 1 1 1 1, f 81;
#X connect 0 0 2 0;
#X connect 2 0 1 0;
#X restore 786 -635 pd simultaneos;
#X obj 784 -658 bng 15 250 50 0 empty empty empty 17 7 0 10 -262144
-1 -1;
#X obj 1151 -655 bng 15 250 50 0 empty empty empty 17 7 0 10 -262144
-1 -1;
#X obj 1268 -655 bng 15 250 50 0 empty empty empty 17 7 0 10 -262144
-1 -1;
#X obj 1424 -655 bng 15 250 50 0 empty empty empty 17 7 0 10 -262144
-1 -1;
#X obj 1496 -658 bng 15 250 50 0 empty empty empty 17 7 0 10 -262144
-1 -1;
#X obj 822 -856 snapshot~;
#X floatatom 779 -761 5 0 0 0 - - -, f 5;
#X obj 861 -948 loadbang;
#X obj 825 -991 hsl 128 15 0 5 0 0 empty empty empty -2 -8 0 10 -262144
-1 -1 0 1;
#X obj 824 -948 osc~;
#X obj 956 -760 s osc;
#X obj 860 -911 metro 40;
#X text 742 -1042 Sistema;
#X obj 1263 -913 hsl 128 15 1 3 0 1 scalar1 empty Scalar 7 -8 0 10
-262144 -1 -1 1600 1;
#N canvas 1055 23 450 300 randomM 0;
#X obj 265 398 +;
#X floatatom 209 435 5 0 0 0 - - randomM, f 5;
#X obj 147 250 line;
#X obj 117 155 t b b b;
#X msg 140 206 0;
#X obj 274 338 t b b;
#X msg 217 208 1;
#X obj 303 362 random 10;
#X msg 224 359 40, f 5;
#X msg 158 358 45;
#X obj 160 320 moses 0.001;
#X obj 116 123 inlet;
#X obj 153 284 speedlim 50;
#X msg 177 207 1000;
#X obj 46 120 bng 15 250 50 0 empty empty empty 17 7 0 10 -262144 -1
-1;
#X connect 0 0 1 0;
#X connect 2 0 12 0;
#X connect 3 0 4 0;
#X connect 3 1 13 0;
#X connect 3 2 6 0;
#X connect 4 0 2 0;
#X connect 5 1 7 0;
#X connect 6 0 2 0;
#X connect 7 0 0 1;
#X connect 8 0 0 0;
#X connect 9 0 1 0;
#X connect 10 0 9 0;
#X connect 10 1 5 0;
#X connect 10 1 8 0;
#X connect 11 0 3 0;
#X connect 12 0 10 0;
#X connect 13 0 2 1;
#X connect 14 0 3 0;
#X restore 1933 -850 pd randomM;
#X obj 1932 -885 bng 15 250 50 0 empty empty empty 17 7 0 10 -262144
-1 -1;
#X obj 822 -807 expr ($f1 + 1)/2;
#X msg 823 -1033 0;
#X msg 858 -1033 0.1;
#X obj 888 -1119 bng 15 250 50 0 empty empty empty 17 7 0 10 -262144
-1 -1;
#N canvas 0 22 450 300 rampa 0;
#X obj 173 207 line;
#X obj 143 112 t b b b;
#X msg 203 163 1000;
#X msg 167 167 0;
#X obj 115 79 inlet;
#X obj 148 257 outlet;
#X msg 251 165 1;
#X connect 0 0 5 0;
#X connect 1 0 6 0;
#X connect 1 1 2 0;
#X connect 1 2 3 0;
#X connect 2 0 0 1;
#X connect 3 0 0 0;
#X connect 4 0 1 0;
#X connect 6 0 0 0;
#X restore 884 -1095 pd rampa 0-0.5(1000);
#N canvas 0 22 450 300 invertidos 0;
#X obj 47 120 inlet;
#X obj 44 194 outlet;
#X msg 47 149 1000 1 5 20 1 5 6 11 8 17 4 20 23 4 16 18 2 0 24 18 7
5 7 5 1 6 4 8 9 2 4 5 7 8 2 3 5, f 98;
#X connect 0 0 2 0;
#X connect 2 0 1 0;
#X restore 1426 -736 pd invertidos;
#X obj 1425 -759 bng 15 250 50 0 empty empty empty 17 7 0 10 -262144
-1 -1;
#X msg 133 -624 connect 192.168.0.55 8888;
#X connect 80 0 122 0;
#X connect 80 0 126 0;
#X connect 120 0 119 1;
#X connect 121 0 119 0;
#X connect 122 0 121 0;
#X connect 124 0 123 1;
#X connect 125 0 123 0;
#X connect 126 0 125 0;
#X connect 130 0 129 0;
#X connect 131 0 132 0;
#X connect 132 0 129 0;
#X connect 133 0 129 0;
#X connect 134 0 137 0;
#X connect 136 0 134 0;
#X connect 137 0 138 0;
#X connect 138 0 131 0;
#X connect 139 0 141 0;
#X connect 141 0 140 0;
#X connect 144 0 145 0;
#X connect 145 0 143 0;
#X connect 146 0 143 0;
#X connect 147 0 143 0;
#X connect 149 0 144 0;
#X connect 150 0 149 0;
#X connect 152 0 151 0;
#X connect 153 0 152 0;
#X connect 154 0 151 0;
#X connect 155 0 154 0;
#X connect 156 0 151 0;
#X connect 157 0 151 0;
#X connect 158 0 151 0;
#X connect 159 0 151 0;
#X connect 160 0 151 0;
#X connect 161 0 160 0;
#X connect 162 0 156 0;
#X connect 163 0 157 0;
#X connect 164 0 158 0;
#X connect 165 0 159 0;
#X connect 166 0 177 0;
#X connect 168 0 172 0;
#X connect 169 0 170 0;
#X connect 170 0 166 0;
#X connect 172 0 166 0;
#X connect 176 0 175 0;
#X connect 177 0 167 0;
#X connect 177 0 171 0;
#X connect 178 0 169 0;
#X connect 179 0 169 0;
#X connect 180 0 181 0;
#X connect 181 0 169 0;
#X connect 182 0 151 0;
#X connect 183 0 182 0;
#X connect 184 0 129 0;
