#N canvas 205 112 1337 460 12;
#X msg 131 62 devices;
#X floatatom 154 90 5 0 0 0 - - -, f 5;
#X msg 154 111 open \$1;
#X msg 155 136 close;
#X obj 152 166 r toComport;
#X obj 673 63 tgl 15 0 empty empty empty 17 7 0 10 -262144 -1 -1 0
1;
#X obj 790 100 cycle~;
#X floatatom 820 49 5 0 0 0 - - -, f 5;
#X obj 790 122 snapshot~;
#X floatatom 799 168 5 0 0 0 - - -, f 5;
#X obj 721 134 bng 15 250 50 0 empty empty empty 17 7 0 10 -262144
-1 -1;
#X floatatom 708 252 5 0 0 0 - - -, f 5;
#X obj 363 151 hsl 128 15 0 180 0 0 empty empty 0_________________180
2 8 0 10 -262144 -1 -1 0 1;
#X obj 360 173 i;
#X obj 360 266 pack;
#X obj 413 191 hsl 128 15 0 180 0 0 empty empty 0_________________180
2 8 0 10 -262144 -1 -1 9550 1;
#X obj 410 211 i;
#X obj 410 233 t b f;
#X msg 360 288 print \$1a\$2b;
#X text 393 132 Servo1 degrees;
#X text 439 174 Servo2 degrees;
#X obj 360 341 s toComport;
#X obj 947 76 tgl 15 0 empty empty empty 17 7 0 10 -262144 -1 -1 0
1;
#X obj 1064 113 cycle~;
#X floatatom 1094 62 5 0 0 0 - - -, f 5;
#X obj 1064 135 snapshot~;
#X floatatom 1073 181 5 0 0 0 - - -, f 5;
#X obj 995 147 bng 15 250 50 0 empty empty empty 17 7 0 10 -262144
-1 -1;
#X floatatom 982 265 5 0 0 0 - - -, f 5;
#X obj 1081 223 scale -1 1 0 160;
#X obj 807 210 scale -1 1 0 160;
#X obj 673 83 metro 20;
#X obj 947 96 metro 20;
#X obj 129 194 comport 1 230400;
#X connect 0 0 33 0;
#X connect 1 0 2 0;
#X connect 2 0 33 0;
#X connect 3 0 33 0;
#X connect 4 0 33 0;
#X connect 5 0 31 0;
#X connect 6 0 8 0;
#X connect 7 0 6 0;
#X connect 8 0 9 0;
#X connect 9 0 30 0;
#X connect 10 0 8 0;
#X connect 11 0 12 0;
#X connect 12 0 13 0;
#X connect 13 0 14 0;
#X connect 14 0 18 0;
#X connect 15 0 16 0;
#X connect 16 0 17 0;
#X connect 17 0 14 0;
#X connect 17 1 14 1;
#X connect 18 0 21 0;
#X connect 22 0 32 0;
#X connect 23 0 25 0;
#X connect 24 0 23 0;
#X connect 25 0 26 0;
#X connect 26 0 29 0;
#X connect 27 0 25 0;
#X connect 28 0 15 0;
#X connect 29 0 28 0;
#X connect 30 0 11 0;
#X connect 31 0 10 0;
#X connect 31 0 8 0;
#X connect 32 0 27 0;
#X connect 32 0 25 0;
